<?xml version="1.0" encoding="utf-8"?>
<!-- Generator: Adobe Illustrator 13.0.0, SVG Export Plug-In . SVG Version: 6.00 Build 14948)  -->
<!DOCTYPE svg PUBLIC "-//W3C//DTD SVG 1.1//EN" "http://www.w3.org/Graphics/SVG/1.1/DTD/svg11.dtd">
<svg version="1.1" id="Layer_1" xmlns="http://www.w3.org/2000/svg" xmlns:xlink="http://www.w3.org/1999/xlink" x="0px" y="0px"
	 width="555px" height="556px" viewBox="377.5 132.5 555 556" enable-background="new 377.5 132.5 555 556" xml:space="preserve">
<g>
	
		<path fill="#FFFFFF" stroke="#221F1F" stroke-width="4" stroke-linecap="round" stroke-linejoin="round" stroke-miterlimit="10" d="
		M673.7,138c-5.4-0.4-10.8-0.6-16.3-0.6c-151.5-1-275.1,121-276.1,272.4c-1,151.5,121,275.1,272.4,276.1c10.7,0.1,21.2-0.5,31.7-1.6
		c136.7-14.8,243.5-130.1,244.4-270.8C930.8,267.5,817.5,147.4,673.7,138z"/>
	<g>
		<g>
			
				<path fill="#FFFFFF" stroke="#221F1F" stroke-width="4" stroke-linecap="round" stroke-linejoin="round" stroke-miterlimit="10" d="
				M676.4,429.1c-99.2-80.6-31-236.7-2.7-291.1c-5.4-0.4-10.8-0.6-16.3-0.6c-151.5-1-275.1,121-276.1,272.4
				c-1,151.5,121,275.1,272.4,276.1c10.7,0.1,21.2-0.5,31.7-1.6C733.6,633.5,793.1,523.9,676.4,429.1z"/>
		</g>
	</g>
	<g>
		<path fill="#221F1F" stroke="#221F1F" stroke-miterlimit="10" d="M502.2,520.5c1.1-24.1,19.7-43,40.8-42c22.2,1,39.2,21.2,38,46.1
			c-1.2,24.9-20,43.3-41.8,42.3C517.4,565.9,501.1,545,502.2,520.5z M582.7,228c4.6,0.2,12.3,1.4,12,8.2
			c-0.3,6.4-30.7,60.1-33.3,116.4c-1.9,40.2,1.5,88.6,1.1,96.7c-0.2,4-15.4,4.9-24.9,4.5c-16.2-0.8-26.1-126.8-24.1-170.2
			c3.1-65.9,8.4-58.4,22.5-57.7L582.7,228z"/>
	</g>
	<g>
		<g>
			<g>
				<path fill="#221F1F" stroke="#221F1F" stroke-miterlimit="10" d="M865.9,399.3c-1.1,9,1.9,19.1-1.2,28.1c-1,1-3,2-5,2
					c-24.1,1.9-47.2,0.7-71.3-1.5c-5-1-10-1.1-15-2.1c-20.1-2.1-39.2,1.8-59.2-1.4c-2-9.1-0.9-19.1-0.8-28.1c0-3,1.1-6,4.1-7
					c4-1,9,0.1,13.1-0.9c45.2,0.3,89.4,3.6,134.5,5.9C865.9,395.3,865.9,397.3,865.9,399.3L865.9,399.3z"/>
			</g>
		</g>
	</g>
	<g>
		<g>
			<g>
				<path fill="#221F1F" stroke="#221F1F" stroke-miterlimit="10" d="M866.3,342.1c-1.1,9,1.9,19.1-1.2,28.1c-1,1-3,2-5,2
					c-22.1-0.2-44.2,0.7-66.3-1.4c-12-2.1-23.1-2.2-35.1-3.2c-11-0.1-23.1-1.2-34.2,0.8c-3,0-8,2-9-1.1c-5-9.1-1.9-19.1-1.8-28.1
					c0-2,1-5,2-5c34.2-7.8,67.3-0.6,100.4,1.7c15.1,0.1,29.1,1.2,44.2-0.7C863.3,335,867.3,338.1,866.3,342.1L866.3,342.1z"/>
			</g>
		</g>
	</g>
</g>
</svg>
