<?xml version="1.0" encoding="utf-8"?>
<!-- Generator: Adobe Illustrator 13.0.0, SVG Export Plug-In . SVG Version: 6.00 Build 14948)  -->
<!DOCTYPE svg PUBLIC "-//W3C//DTD SVG 1.1//EN" "http://www.w3.org/Graphics/SVG/1.1/DTD/svg11.dtd">
<svg version="1.1" id="Layer_1" xmlns="http://www.w3.org/2000/svg" xmlns:xlink="http://www.w3.org/1999/xlink" x="0px" y="0px"
	 width="801px" height="118px" viewBox="14.3 -17.8 801 118" enable-background="new 14.3 -17.8 801 118" xml:space="preserve">
<path fill="#FFFFFF" d="M76.2,42.8h-27c-0.7,0-1.2,0.5-1.2,1.1V55c0,0.6,0.5,1.1,1.2,1.1h10.5V70c0,0-2.4,0.7-8.9,0.7
	c-7.7,0-18.5-2.4-18.5-22.4c0-20,11.2-22.7,21.8-22.7c9.1,0,13,1.4,15.5,2c0.8,0.2,1.5-0.5,1.5-1.1l3-10.8c0-0.3-0.1-0.6-0.4-0.8
	c-1-0.6-7.2-3.5-22.8-3.5c-18,0-36.6,6.5-36.6,37.6c0,31.1,21.1,35.8,39,35.8c14.8,0,23.7-5.3,23.7-5.3c0.4-0.2,0.4-0.6,0.4-0.8
	V43.9C77.4,43.3,76.9,42.8,76.2,42.8"/>
<path fill="#FFFFFF" d="M215.3,15.1c0-0.6-0.5-1.1-1.2-1.1h-15.2c-0.7,0-1.2,0.5-1.2,1.1v24.8h-23.7V15.1c0-0.6-0.5-1.1-1.2-1.1
	h-15.2c-0.7,0-1.2,0.5-1.2,1.1v67.2c0,0.6,0.5,1.1,1.2,1.1h15.2c0.7,0,1.2-0.5,1.2-1.1V53.6h23.7v28.7c0,0.6,0.5,1.1,1.2,1.1h15.2
	c0.7,0,1.2-0.5,1.2-1.1L215.3,15.1L215.3,15.1z"/>
<path fill="#FFFFFF" d="M115.9,30c0-6.1-4.9-11.1-11-11.1s-11,5-11,11.1s4.9,11.1,11,11.1S115.9,36.2,115.9,30"/>
<path fill="#FFFFFF" d="M103.8,68.2v-31c0-0.6-0.5-1.1-1.2-1.1H87.4c-0.7,0-1.3,0.6-1.3,1.2v44.5c0,1.3,1,1.7,2.2,1.7H102
	c1.5,0,1.9-0.6,1.9-1.7V68.2z"/>
<path fill="#FFFFFF" d="M273.1,36.1H258c-0.7,0-1.2,0.5-1.2,1.1v32.9c0,0-3.8,2.3-9.3,2.3s-6.9-2.1-6.9-6.6V37.3
	c0-0.6-0.5-1.1-1.2-1.1H224c-0.7,0-1.2,0.5-1.2,1.1v30.9c0,13.3,8.8,16.7,21,16.7c10,0,17.9-4.7,17.9-4.7s0.4,2.4,0.5,2.7
	c0.2,0.3,0.6,0.6,1.1,0.6h9.7c0.7,0,1.2-0.5,1.2-1.1V37.3C274.3,36.7,273.7,36.1,273.1,36.1"/>
<path fill="#FFFFFF" d="M314.3,34.6c-8.6,0-14.4,3.2-14.4,3.2V15.1c0-0.6-0.5-1.1-1.2-1.1h-15.2c-0.7,0-1.2,0.5-1.2,1.1v67.2
	c0,0.6,0.5,1.1,1.2,1.1H294c0.4,0,0.8-0.2,1.1-0.6c0.3-0.4,0.6-3.1,0.6-3.1s6.2,5,18,5c13.8,0,21.8-6,21.8-26.7
	C335.5,37.3,322.8,34.6,314.3,34.6 M308.3,72.5c-5.3-0.2-8.7-2.1-8.7-2.1V49.1c0,0,3.5-1.8,7.8-2.1c5.4-0.4,10.7,1,10.7,11.9
	C318,70.4,315.6,72.7,308.3,72.5"/>
<path fill="#FFFFFF" d="M147.4,36.1H136V23.3c0-0.5-0.3-0.8-1-0.8h-15.5c-0.6,0-0.9,0.2-0.9,0.7v13.2c0,0-7.8,1.6-8.3,1.7
	c-0.5,0.2-0.9,0.5-0.9,1.1v8.3c0,0.6,0.5,1.1,1.2,1.1h7.9v19.9c0,14.8,12.2,16.2,20.5,16.2c3.7,0,8.3-1.1,9-1.3
	c0.4-0.2,0.7-0.5,0.7-1v-9.1c0-0.6-0.6-1.1-1.2-1.1c-0.6,0-2.4,0.2-4.1,0.2c-5.6,0-7.5-2.2-7.5-5c0-2.9,0-18.9,0-18.9h11.4
	c0.7,0,1.2-0.5,1.2-1.1V37.1C148.7,36.5,148.2,36.1,147.4,36.1"/>
<g>
	<path fill="#D0980C" d="M366.7,47.3l-6.3,1.4c-0.6,0.6-1.3,1.1-2.2,1.1c-1.8,0-4.3-1.1-4.5-6.7c-0.2-2.6,1.3-5.9,3.3-6
		c1,0,2,0.3,2.6,0.4l6.5-1.4c-1.2-25.3,1.6-38,15.7-38.8c6.8-0.4,15.9,6.2,16.1,11.1c0.2,2.8-1.4,6.9-4.8,7
		c-2.8,0.2-4.9-2.1-4.9-4.2c-1-1.6-3.5-3-6.3-2.8c-3.8,0.2-5.3,5.9-4.4,24.9l13.6-3.4c0.8-0.4,1.5-1.7,2.8-1.7
		c3.1-0.2,5,2.5,5.2,5.5c0.2,4.1-1,7.3-3.6,7.5c-0.8,0-2.1-0.2-2.6-0.5l-14.8,3.6l1.9,39.2c0.6,1.3,1.2,2.7,1.3,3.9
		c0.2,3.6-2.5,5.6-6.3,5.8c-4.9,0.2-6.9-1.5-7.1-5.5c0-0.8,0.3-1.9,0.7-2.7L366.7,47.3z"/>
	<path fill="#D0980C" d="M431.8,25.9c15.2-0.8,19.6,15.6,20.1,25.8c0.6,11.9-5.5,22.7-8.3,26.3c-9,11.3-14.9,14.3-25.8,14.9
		c-6.9,0.4-17.3-5.7-18.1-21.6c-1.2-25,13.5-44.3,32-45.4L431.8,25.9z M430,37.1c-10,0.6-19.6,15.4-18.8,31.5
		c0.4,8.2,4.3,13.4,8.8,13.1c5.5-0.4,9.7-2.9,13.8-8.2c4.4-5.5,6.9-13,6.5-20.5c-0.4-9.2-3.3-16.3-10.2-15.9L430,37.1z"/>
	<path fill="#D0980C" d="M462.7,34.1l-1.1-3.6c-0.2-2.7,3-5.2,6.9-5.4c3.7-0.2,6.1,1.5,6.3,4.3c0,0.9,0.3,2.1-0.5,3.3l0.2,4.9l0.1,0
		c6.5-7.4,13.3-13.4,19.2-13.7c3.8-0.2,7.9,3.8,8.5,16.9c0.2,4-1.6,6.6-5.9,6.8c-3.6,0.2-5.7-1-5.9-3.5c0-1.3,0.1-2.6,0.4-3.8
		c0-1.6-0.7-3-1.6-3c-2,0.2-8.3,5.2-14.2,14.1l1.2,26c0.7,0.8,1.6,2.4,1.6,3.8c0.2,4.2-1.8,6.5-8.4,6.9c-3.9,0.2-5.9-1.5-6-5.2
		c0-1.4,0.6-2.8,1.5-3.7L462.7,34.1z"/>
	<path fill="#D0980C" d="M521.6,45l0.2,0.1c3.3-5.1,5.5-8.2,7.6-11.1L540.1,21c0-2.5,1.9-4.6,4.5-4.8c4.3-0.2,6.6,3,6.8,6.6
		c0.2,3.3-2.1,5.3-3.9,5.5l-16.5,21.7l20.2,22.4c2.4-0.4,4.7,1.4,4.8,4.4c0.2,4.1-2.6,7.4-7.4,7.7c-2.1,0.2-3.7-1.3-4.5-3.9
		l-13.5-15c-2-2.3-4.5-5-8-9.8l-0.2,0.1l0.8,17.5c0.4,1.4,1.5,3,1.6,4.6c0.2,4.9-2,7.2-7,7.4c-3,0.2-6.9-0.9-7.1-7
		c0-0.9-0.1-2.9,1-4.1l-3.5-71.7c-0.6-0.6-1.6-2.4-1.6-3.8c-0.3-3.1,0.7-6.5,6.9-6.9c4.7-0.2,6.8,1.5,7,6c0,1.2-0.1,2.8-0.8,3.8
		L521.6,45z"/>
	<path fill="#D0980C" d="M578,73.7c0.6,0.9,1,1.7,1,3.4c0.2,3.6-4.1,5.4-7.4,5.6c-3.1,0.2-6.2-1-6.4-4.4c0-1.6,0.2-2.8,1.3-4
		l-1-22.1c-1.1-0.7-1.9-2.3-2.1-4.5c-0.2-2.2,0.4-4.7,1.5-8.3L564.2,28c-0.6-1.3-1.1-2.3-1.2-4.2c-0.2-2.8,3.6-6,7.4-6.3
		c4.7-0.2,6.2,1.6,6.3,4.6c0,2-0.5,3.4-1,4.5l0.2,5.5c12-13,17.5-16.2,21.9-16.4c4.5-0.2,9.5,4.3,9.7,8.8l2.2,46.2
		c0.3,0.8,0.9,1.6,0.9,3.6c0.2,4.3-2.1,6-6.8,6.4c-4.2,0.2-6.4-1.6-6.5-5c0-1.5,0.4-2.6,1-3.8l-1.9-39.7c0-0.9-2.1-2.5-3-2.5
		c-1.2,0-5.8,2.1-16.9,14.1L578,73.7z"/>
	<path fill="#D0980C" d="M634.3,27.7l0.2,0.2c5.9-6.5,14.9-12.4,24.9-13c7.2-0.4,12.2,3.7,12.6,13.8c1,19.7-20.2,50.6-41.9,51.8
		c-4.6,0.2-7-1.1-7.2-5.4c0-1.6,0.8-4.1,1.8-5l-3.5-74c-1.2-1.6-1.7-3.3-1.9-5.1c-0.2-3.5,5.2-5.4,8.2-5.6c2.8-0.2,5.7,0.8,5.9,4.9
		c0,1.3-0.3,2.7-0.8,3.9L634.3,27.7z M636.2,67.3c12.1-5.4,25-21,24.2-37.1c-0.2-3.5-4.2-3.8-5.7-3.6c-4.9,0.2-13.3,4.8-19.9,13.3
		L636.2,67.3z"/>
	<path fill="#D0980C" d="M680.8-5c-0.5-1.3-1.4-3-1.5-4.8c-0.3-6.1,1.1-7.8,7.2-8c3.3-0.2,7.2,2.1,7.4,6.3c0.2,2.6-0.5,4.6-1.5,6.4
		l3.3,70.5c1.4,1.1,2.1,2.5,2.2,4.2c0.2,2.3-2.8,6.1-7.1,6.4c-3.8,0.2-7.3-2-7.5-6.5c0-1.3,0.4-2.5,1-3.8L680.8-5z"/>
	<path fill="#D0980C" d="M738.5,8.9c15.2-0.8,19.6,15.6,20.1,25.8c0.6,11.9-5.5,22.7-8.3,26.3c-9,11.3-14.9,14.3-25.8,14.9
		c-6.9,0.4-17.3-5.7-18.1-21.6c-1.2-25,13.5-44.3,32-45.4L738.5,8.9z M736.7,20.1c-10,0.6-19.6,15.4-18.8,31.5
		c0.4,8.2,4.3,13.4,8.8,13.1c5.5-0.4,9.7-2.9,13.8-8.2c4.4-5.5,6.9-13,6.5-20.5c-0.4-9.2-3.3-16.3-10.2-15.9L736.7,20.1z"/>
	<path fill="#D0980C" d="M815.2,70.7c0.9,19-12.6,28.6-24.1,29.4c-10.2,0.6-18.6-3.7-18.9-9.2c-0.2-4.2,1.9-7.5,5.1-7.6
		c2.2-0.2,4.2,1.3,4.7,3.9c2.2,1.7,5.7,2.6,9.2,2.4c5.8-0.4,13.3-5.1,12.6-19.3c-0.4-7-0.5-14.3-0.9-21.4
		c-4.1,14.1-14.5,23.6-23.7,24.2c-9.5,0.6-13.9-6.3-14.3-15.2c-1.1-22.6,13.6-49.2,39.8-50.6c5-0.2,7.6,1.7,7.9,7L815.2,70.7z
		 M780.1,61.3c5.1-0.2,14.5-9.1,18.7-25.7c1.4-5.2,2.4-11.1,2.5-17.6l0-0.1c-14.8,0.8-26.1,20.2-25.2,37.1c0.2,4,1.7,6.4,3.9,6.3
		L780.1,61.3z"/>
</g>
</svg>
